<svg width="230" height="161" viewBox="0 0 230 161" fill="none" xmlns="http://www.w3.org/2000/svg">
<path d="M37.3514 27.1445C16.7014 42.1476 12.1343 70.9832 27.1374 91.6332C47.4904 119.647 114.887 133.863 114.887 133.863C114.887 133.863 122.193 65.372 101.84 37.3585C86.837 16.7085 58.0013 12.1414 37.3514 27.1445ZM74.1806 77.8356C66.8171 83.1856 56.4989 81.5513 51.149 74.1878C45.799 66.8242 47.4333 56.506 54.7968 51.1561C62.1604 45.8061 72.4786 47.4404 77.8285 54.8039C83.1784 62.1675 81.5442 72.4857 74.1806 77.8356Z" fill="url(#paint0_linear_1338_31867)"/>
<g filter="url(#filter0_bdii_1338_31867)">
<path d="M191.668 27.1374C171.018 12.1343 142.182 16.7014 127.179 37.3514C106.826 65.3649 114.132 133.856 114.132 133.856C114.132 133.856 181.529 119.64 201.882 91.6261C216.885 70.9761 212.318 42.1404 191.668 27.1374ZM154.839 77.8285C147.475 72.4786 145.841 62.1604 151.191 54.7968C156.541 47.4333 166.859 45.799 174.222 51.149C181.586 56.4989 183.22 66.8171 177.87 74.1806C172.52 81.5442 162.202 83.1784 154.839 77.8285Z" fill="#FF1F2F" fill-opacity="0.2" shape-rendering="crispEdges"/>
</g>
<path d="M195.359 63.4862L195.28 62.4637C194.996 58.8389 194.806 56.447 196.161 55.0429C197.265 53.8989 199.053 53.8882 200.225 55.0187C200.886 55.6573 201.231 56.5711 201.187 57.4466C202.06 57.3713 202.986 57.6833 203.648 58.322C204.819 59.4525 204.872 61.2396 203.768 62.3836C202.413 63.7876 200.016 63.6837 196.38 63.5319L195.359 63.4862Z" fill="white"/>
<defs>
<filter id="filter0_bdii_1338_31867" x="97.8555" y="3.3038" width="127.859" height="145.552" filterUnits="userSpaceOnUse" color-interpolation-filters="sRGB">
<feFlood flood-opacity="0" result="BackgroundImageFix"/>
<feGaussianBlur in="BackgroundImageFix" stdDeviation="7.5"/>
<feComposite in2="SourceAlpha" operator="in" result="effect1_backgroundBlur_1338_31867"/>
<feColorMatrix in="SourceAlpha" type="matrix" values="0 0 0 0 0 0 0 0 0 0 0 0 0 0 0 0 0 0 127 0" result="hardAlpha"/>
<feOffset dx="2" dy="-2"/>
<feGaussianBlur stdDeviation="6"/>
<feComposite in2="hardAlpha" operator="out"/>
<feColorMatrix type="matrix" values="0 0 0 0 1 0 0 0 0 0 0 0 0 0 0 0 0 0 0.12 0"/>
<feBlend mode="color-burn" in2="effect1_backgroundBlur_1338_31867" result="effect2_dropShadow_1338_31867"/>
<feBlend mode="normal" in="SourceGraphic" in2="effect2_dropShadow_1338_31867" result="shape"/>
<feColorMatrix in="SourceAlpha" type="matrix" values="0 0 0 0 0 0 0 0 0 0 0 0 0 0 0 0 0 0 127 0" result="hardAlpha"/>
<feOffset dy="-2"/>
<feGaussianBlur stdDeviation="6"/>
<feComposite in2="hardAlpha" operator="arithmetic" k2="-1" k3="1"/>
<feColorMatrix type="matrix" values="0 0 0 0 1 0 0 0 0 0.383333 0 0 0 0 0.427645 0 0 0 0.15 0"/>
<feBlend mode="normal" in2="shape" result="effect3_innerShadow_1338_31867"/>
<feColorMatrix in="SourceAlpha" type="matrix" values="0 0 0 0 0 0 0 0 0 0 0 0 0 0 0 0 0 0 127 0" result="hardAlpha"/>
<feOffset dx="-2" dy="2"/>
<feGaussianBlur stdDeviation="5"/>
<feComposite in2="hardAlpha" operator="arithmetic" k2="-1" k3="1"/>
<feColorMatrix type="matrix" values="0 0 0 0 0.995833 0 0 0 0 0.850608 0 0 0 0 0.887665 0 0 0 0.52 0"/>
<feBlend mode="normal" in2="effect3_innerShadow_1338_31867" result="effect4_innerShadow_1338_31867"/>
</filter>
<linearGradient id="paint0_linear_1338_31867" x1="-35.2895" y1="-34.1913" x2="101.476" y2="142.464" gradientUnits="userSpaceOnUse">
<stop stop-color="#FFACB2" stop-opacity="0"/>
<stop offset="0.975652" stop-color="#FF5864"/>
</linearGradient>
</defs>
</svg>
