<svg width="12" height="6" viewBox="0 0 12 6" fill="none" xmlns="http://www.w3.org/2000/svg">
<path d="M6.35903 0.443291C6.48354 0.330134 6.64924 0.267577 6.82116 0.268819C6.99308 0.27006 7.15777 0.335004 7.28047 0.449946C7.40318 0.564888 7.47431 0.720837 7.47886 0.884888C7.4834 1.04894 7.421 1.20826 7.30483 1.32923L3.77796 5.53954C3.71731 5.60189 3.64412 5.65193 3.56275 5.68666C3.48138 5.7214 3.39351 5.74011 3.30439 5.74168C3.21527 5.74326 3.12674 5.72766 3.04408 5.69583C2.96142 5.664 2.88634 5.61658 2.82331 5.55642L0.484438 3.32385C0.419305 3.26592 0.367062 3.19606 0.330829 3.11843C0.294595 3.04081 0.275111 2.95701 0.273541 2.87205C0.27197 2.78708 0.288345 2.70268 0.321687 2.62388C0.35503 2.54508 0.404658 2.47351 0.46761 2.41342C0.530562 2.35332 0.605549 2.30595 0.688098 2.27413C0.770646 2.2423 0.859065 2.22667 0.948079 2.22817C1.03709 2.22967 1.12488 2.24826 1.2062 2.28285C1.28752 2.31744 1.36071 2.36731 1.4214 2.42948L3.27235 4.19545L6.34135 0.461853C6.34685 0.455339 6.35276 0.449141 6.35903 0.443291ZM5.54581 4.78017L6.35903 5.55642C6.42203 5.61645 6.49706 5.66376 6.57964 5.69551C6.66222 5.72727 6.75065 5.74282 6.83966 5.74125C6.92867 5.73967 7.01644 5.721 7.09772 5.68635C7.17901 5.65169 7.25215 5.60176 7.31278 5.53954L10.8414 1.32923C10.9048 1.26949 10.9549 1.19817 10.9888 1.11954C11.0227 1.0409 11.0396 0.956549 11.0386 0.871528C11.0375 0.786508 11.0185 0.702559 10.9828 0.624695C10.947 0.546832 10.8951 0.47665 10.8303 0.41834C10.7655 0.360031 10.689 0.314791 10.6054 0.28532C10.5219 0.25585 10.433 0.242755 10.344 0.246816C10.255 0.250878 10.1678 0.272013 10.0876 0.308959C10.0074 0.345905 9.93577 0.397905 9.87706 0.461853L6.80718 4.19545L6.37847 3.78539L5.54493 4.78017H5.54581Z" fill="white"/>
</svg>
