<svg width="375" height="216" viewBox="0 0 375 216" fill="none" xmlns="http://www.w3.org/2000/svg">
<g clip-path="url(#clip0_1388_32346)">
<rect width="375" height="216" fill="white"/>
<g filter="url(#filter0_bdii_1388_32346)">
<path d="M41.545 206.065L13.9043 189.118C12.004 187.953 9.5974 188.428 8.53517 190.161L-3.07003 209.051C-4.13226 210.783 -3.44656 213.154 -1.54626 214.319L26.0944 231.266C27.9947 232.431 30.4186 231.966 31.4808 230.234L43.0688 211.333C44.131 209.601 43.4453 207.23 41.545 206.065ZM37.6824 212.365L19.0337 211.767L10.0417 195.418L11.973 192.268L20.965 208.617L39.6137 209.215L37.6824 212.365Z" fill="#F82B3A" fill-opacity="0.2" shape-rendering="crispEdges"/>
</g>
<g filter="url(#filter1_bdii_1388_32346)">
<path d="M341.381 22.8824C335.089 23.3701 330.395 28.8534 330.882 35.1453C331.544 43.6808 343.902 55.3986 343.902 55.3986C343.902 55.3986 354.305 41.9162 353.644 33.3807C353.156 27.0889 347.673 22.3946 341.381 22.8824ZM342.578 38.3276C340.334 38.5015 338.372 36.8218 338.198 34.5781C338.025 32.3345 339.704 30.3724 341.948 30.1985C344.191 30.0246 346.154 31.7043 346.327 33.9479C346.501 36.1915 344.822 38.1536 342.578 38.3276Z" fill="#FF1F2F" fill-opacity="0.2" shape-rendering="crispEdges"/>
</g>
<path d="M57.5314 69.6458C60.8669 68.3281 62.5011 64.5593 61.1834 61.2239C59.8657 57.8884 56.0969 56.2541 52.7615 57.5718C49.426 58.8895 47.7918 62.6584 49.1095 65.9938C50.4272 69.3292 54.196 70.9635 57.5314 69.6458ZM58.7239 72.6643C54.6942 74.2563 47.4489 79.4566 49.0349 83.4712L50.2274 86.4897L74.3753 76.9498L73.1828 73.9313C71.5968 69.9167 62.7536 71.0723 58.7239 72.6643Z" fill="url(#paint0_linear_1388_32346)"/>
<g filter="url(#filter2_bdii_1388_32346)">
<path d="M179.687 221.897L177.777 221.453C171.002 219.892 166.531 218.864 164.686 215.565C163.182 212.878 164.112 209.584 166.8 208.08C168.318 207.23 170.171 207.122 171.747 207.707C172.074 206.057 173.135 204.535 174.654 203.686C177.342 202.182 180.635 203.112 182.139 205.8C183.985 209.099 182.522 213.447 180.313 220.045L179.687 221.897Z" fill="#FF5864" fill-opacity="0.2" shape-rendering="crispEdges"/>
</g>
<g filter="url(#filter3_bdii_1388_32346)">
<path d="M205.687 84.8966L203.777 84.4527C197.002 82.8919 192.531 81.8641 190.686 78.5654C189.182 75.8775 190.112 72.584 192.8 71.0801C194.318 70.2305 196.171 70.1219 197.747 70.7067C198.074 69.0575 199.135 67.5351 200.654 66.6855C203.342 65.1816 206.635 66.1119 208.139 68.7998C209.985 72.0985 208.522 76.4465 206.313 83.0454L205.687 84.8966Z" fill="#FF5864" fill-opacity="0.2" shape-rendering="crispEdges"/>
</g>
<path d="M119.594 119.767C115.501 118.828 111.483 121.156 110.607 124.974C109.418 130.153 115.066 139.496 115.066 139.496C115.066 139.496 124.222 133.55 125.411 128.371C126.287 124.554 123.686 120.706 119.594 119.767ZM117.443 129.139C115.984 128.804 115.053 127.427 115.365 126.066C115.678 124.704 117.115 123.871 118.575 124.206C120.034 124.541 120.965 125.918 120.652 127.279C120.34 128.64 118.902 129.473 117.443 129.139Z" fill="url(#paint1_linear_1388_32346)"/>
<path d="M244.072 -2.28002C239.56 -0.0602293 237.585 5.13965 239.656 9.34911C242.465 15.0596 254.774 19.4743 254.774 19.4743C254.774 19.4743 258.789 7.02935 255.979 1.31885C253.909 -2.89061 248.584 -4.49982 244.072 -2.28002ZM249.155 8.05326C247.546 8.84482 245.641 8.269 244.903 6.76795C244.164 5.26691 244.871 3.40625 246.48 2.61469C248.089 1.82314 249.994 2.39896 250.733 3.9C251.471 5.40105 250.764 7.26171 249.155 8.05326Z" fill="url(#paint2_linear_1388_32346)"/>
<path d="M294.911 80.5794L271.879 85.2146C270.296 85.5332 269.269 87.0562 269.58 88.6026L272.961 105.475C273.272 107.021 274.822 108.025 276.405 107.707L299.437 103.072C301.021 102.753 302.062 101.227 301.751 99.6806L298.356 82.8115C298.045 81.2652 296.494 80.2608 294.911 80.5794ZM296.043 86.2024L285.941 95.5488L273.011 90.8376L272.445 88.0261L285.375 92.7373L295.477 83.3909L296.043 86.2024Z" fill="url(#paint3_linear_1388_32346)"/>
<path d="M297.896 101.598L297.666 101.488C296.853 101.099 296.316 100.842 296.187 100.381C296.082 100.003 296.307 99.6223 296.699 99.5133C296.92 99.4517 297.159 99.4917 297.341 99.6084C297.436 99.4145 297.621 99.2564 297.842 99.1948C298.233 99.0857 298.623 99.2948 298.728 99.6727C298.856 100.134 298.53 100.632 298.035 101.385L297.896 101.598Z" fill="white"/>
<path d="M136.194 9.78643L120.719 -10.695C119.656 -12.103 117.67 -12.3923 116.295 -11.3533L101.284 -0.0321603C99.9089 1.00679 99.6543 3.00891 100.718 4.41701L116.193 24.8984C117.257 26.3065 119.252 26.6085 120.627 25.5696L135.628 14.2356C137.003 13.1967 137.258 11.1945 136.194 9.78643ZM131.194 13.5644L117.206 8.04622L115.719 -6.91696L118.219 -8.80596L119.706 6.15722L133.694 11.6754L131.194 13.5644Z" fill="url(#paint4_linear_1388_32346)"/>
<path d="M116.912 22.6822L116.912 22.4044C116.909 21.4194 116.908 20.7685 117.302 20.4236C117.624 20.1409 118.105 20.1825 118.398 20.5161C118.563 20.7045 118.637 20.9595 118.608 21.1937C118.844 21.1956 119.088 21.3024 119.253 21.4908C119.546 21.8244 119.524 22.3069 119.202 22.5896C118.809 22.9345 118.164 22.849 117.187 22.7185L116.912 22.6822Z" fill="white"/>
<g filter="url(#filter4_bdii_1388_32346)">
<path d="M367.501 141.5C372.061 139.193 373.885 133.63 371.577 129.07C369.27 124.51 363.708 122.686 359.148 124.993C354.587 127.301 352.763 132.863 355.071 137.423C357.378 141.983 362.94 143.808 367.501 141.5ZM369.589 145.627C364.08 148.415 354.481 156.745 357.258 162.233L359.347 166.36L392.36 149.654L390.272 145.527C387.495 140.039 375.098 142.839 369.589 145.627Z" fill="#FF3140" fill-opacity="0.2" shape-rendering="crispEdges"/>
</g>
<path d="M298.065 212.409L296.747 210.342C292.061 203.024 288.969 198.184 290.202 193.636C291.212 189.908 294.92 187.791 298.636 188.798C300.735 189.367 302.485 190.891 303.385 192.779C305.115 191.603 307.395 191.172 309.494 191.741C313.21 192.748 315.342 196.447 314.331 200.175C313.098 204.724 307.986 207.34 300.246 211.29L298.065 212.409Z" fill="url(#paint5_linear_1388_32346)"/>
<path d="M2.06472 143.409L0.746944 141.342C-3.93942 134.024 -7.03108 129.184 -5.79838 124.636C-4.78802 120.908 -1.08033 118.791 2.63562 119.798C4.73489 120.367 6.48485 121.891 7.38465 123.779C9.11497 122.603 11.3946 122.172 13.4939 122.741C17.2099 123.748 19.3415 127.447 18.3312 131.175C17.0984 135.724 11.9861 138.34 4.24573 142.29L2.06472 143.409Z" fill="url(#paint6_linear_1388_32346)"/>
</g>
<defs>
<filter id="filter0_bdii_1388_32346" x="-18.5703" y="173.479" width="77.1406" height="73.4287" filterUnits="userSpaceOnUse" color-interpolation-filters="sRGB">
<feFlood flood-opacity="0" result="BackgroundImageFix"/>
<feGaussianBlur in="BackgroundImageFix" stdDeviation="7.5"/>
<feComposite in2="SourceAlpha" operator="in" result="effect1_backgroundBlur_1388_32346"/>
<feColorMatrix in="SourceAlpha" type="matrix" values="0 0 0 0 0 0 0 0 0 0 0 0 0 0 0 0 0 0 127 0" result="hardAlpha"/>
<feOffset dx="2" dy="-2"/>
<feGaussianBlur stdDeviation="6"/>
<feComposite in2="hardAlpha" operator="out"/>
<feColorMatrix type="matrix" values="0 0 0 0 0.975 0 0 0 0 0.065 0 0 0 0 0.065 0 0 0 0.1 0"/>
<feBlend mode="color-burn" in2="effect1_backgroundBlur_1388_32346" result="effect2_dropShadow_1388_32346"/>
<feBlend mode="normal" in="SourceGraphic" in2="effect2_dropShadow_1388_32346" result="shape"/>
<feColorMatrix in="SourceAlpha" type="matrix" values="0 0 0 0 0 0 0 0 0 0 0 0 0 0 0 0 0 0 127 0" result="hardAlpha"/>
<feOffset dy="-2"/>
<feGaussianBlur stdDeviation="5"/>
<feComposite in2="hardAlpha" operator="arithmetic" k2="-1" k3="1"/>
<feColorMatrix type="matrix" values="0 0 0 0 1 0 0 0 0 0.145833 0 0 0 0 0.145833 0 0 0 0.15 0"/>
<feBlend mode="normal" in2="shape" result="effect3_innerShadow_1388_32346"/>
<feColorMatrix in="SourceAlpha" type="matrix" values="0 0 0 0 0 0 0 0 0 0 0 0 0 0 0 0 0 0 127 0" result="hardAlpha"/>
<feOffset dx="-2" dy="2"/>
<feGaussianBlur stdDeviation="5"/>
<feComposite in2="hardAlpha" operator="arithmetic" k2="-1" k3="1"/>
<feColorMatrix type="matrix" values="0 0 0 0 1 0 0 0 0 0.970833 0 0 0 0 0.970833 0 0 0 0.1 0"/>
<feBlend mode="normal" in2="effect3_innerShadow_1388_32346" result="effect4_innerShadow_1388_32346"/>
</filter>
<filter id="filter1_bdii_1388_32346" x="315.848" y="7.84766" width="52.8281" height="62.5508" filterUnits="userSpaceOnUse" color-interpolation-filters="sRGB">
<feFlood flood-opacity="0" result="BackgroundImageFix"/>
<feGaussianBlur in="BackgroundImageFix" stdDeviation="7.5"/>
<feComposite in2="SourceAlpha" operator="in" result="effect1_backgroundBlur_1388_32346"/>
<feColorMatrix in="SourceAlpha" type="matrix" values="0 0 0 0 0 0 0 0 0 0 0 0 0 0 0 0 0 0 127 0" result="hardAlpha"/>
<feOffset dx="2" dy="-2"/>
<feGaussianBlur stdDeviation="6"/>
<feComposite in2="hardAlpha" operator="out"/>
<feColorMatrix type="matrix" values="0 0 0 0 1 0 0 0 0 0 0 0 0 0 0 0 0 0 0.12 0"/>
<feBlend mode="color-burn" in2="effect1_backgroundBlur_1388_32346" result="effect2_dropShadow_1388_32346"/>
<feBlend mode="normal" in="SourceGraphic" in2="effect2_dropShadow_1388_32346" result="shape"/>
<feColorMatrix in="SourceAlpha" type="matrix" values="0 0 0 0 0 0 0 0 0 0 0 0 0 0 0 0 0 0 127 0" result="hardAlpha"/>
<feOffset dy="-2"/>
<feGaussianBlur stdDeviation="6"/>
<feComposite in2="hardAlpha" operator="arithmetic" k2="-1" k3="1"/>
<feColorMatrix type="matrix" values="0 0 0 0 1 0 0 0 0 0.383333 0 0 0 0 0.427645 0 0 0 0.15 0"/>
<feBlend mode="normal" in2="shape" result="effect3_innerShadow_1388_32346"/>
<feColorMatrix in="SourceAlpha" type="matrix" values="0 0 0 0 0 0 0 0 0 0 0 0 0 0 0 0 0 0 127 0" result="hardAlpha"/>
<feOffset dx="-2" dy="2"/>
<feGaussianBlur stdDeviation="5"/>
<feComposite in2="hardAlpha" operator="arithmetic" k2="-1" k3="1"/>
<feColorMatrix type="matrix" values="0 0 0 0 0.995833 0 0 0 0 0.850608 0 0 0 0 0.887665 0 0 0 0.52 0"/>
<feBlend mode="normal" in2="effect3_innerShadow_1388_32346" result="effect4_innerShadow_1388_32346"/>
</filter>
<filter id="filter2_bdii_1388_32346" x="148.969" y="187.967" width="49.0117" height="48.9292" filterUnits="userSpaceOnUse" color-interpolation-filters="sRGB">
<feFlood flood-opacity="0" result="BackgroundImageFix"/>
<feGaussianBlur in="BackgroundImageFix" stdDeviation="7.5"/>
<feComposite in2="SourceAlpha" operator="in" result="effect1_backgroundBlur_1388_32346"/>
<feColorMatrix in="SourceAlpha" type="matrix" values="0 0 0 0 0 0 0 0 0 0 0 0 0 0 0 0 0 0 127 0" result="hardAlpha"/>
<feOffset dx="2" dy="-2"/>
<feGaussianBlur stdDeviation="6"/>
<feComposite in2="hardAlpha" operator="out"/>
<feColorMatrix type="matrix" values="0 0 0 0 0.975 0 0 0 0 0 0 0 0 0 0 0 0 0 0.1 0"/>
<feBlend mode="color-burn" in2="effect1_backgroundBlur_1388_32346" result="effect2_dropShadow_1388_32346"/>
<feBlend mode="normal" in="SourceGraphic" in2="effect2_dropShadow_1388_32346" result="shape"/>
<feColorMatrix in="SourceAlpha" type="matrix" values="0 0 0 0 0 0 0 0 0 0 0 0 0 0 0 0 0 0 127 0" result="hardAlpha"/>
<feOffset dy="-2"/>
<feGaussianBlur stdDeviation="5"/>
<feComposite in2="hardAlpha" operator="arithmetic" k2="-1" k3="1"/>
<feColorMatrix type="matrix" values="0 0 0 0 0.9875 0 0 0 0 0.0329167 0 0 0 0 0.0329167 0 0 0 0.25 0"/>
<feBlend mode="normal" in2="shape" result="effect3_innerShadow_1388_32346"/>
<feColorMatrix in="SourceAlpha" type="matrix" values="0 0 0 0 0 0 0 0 0 0 0 0 0 0 0 0 0 0 127 0" result="hardAlpha"/>
<feOffset dx="-2" dy="2"/>
<feGaussianBlur stdDeviation="5"/>
<feComposite in2="hardAlpha" operator="arithmetic" k2="-1" k3="1"/>
<feColorMatrix type="matrix" values="0 0 0 0 1 0 0 0 0 0.929167 0 0 0 0 0.929167 0 0 0 0.52 0"/>
<feBlend mode="normal" in2="effect3_innerShadow_1388_32346" result="effect4_innerShadow_1388_32346"/>
</filter>
<filter id="filter3_bdii_1388_32346" x="174.969" y="50.9673" width="49.0117" height="48.9292" filterUnits="userSpaceOnUse" color-interpolation-filters="sRGB">
<feFlood flood-opacity="0" result="BackgroundImageFix"/>
<feGaussianBlur in="BackgroundImageFix" stdDeviation="7.5"/>
<feComposite in2="SourceAlpha" operator="in" result="effect1_backgroundBlur_1388_32346"/>
<feColorMatrix in="SourceAlpha" type="matrix" values="0 0 0 0 0 0 0 0 0 0 0 0 0 0 0 0 0 0 127 0" result="hardAlpha"/>
<feOffset dx="2" dy="-2"/>
<feGaussianBlur stdDeviation="6"/>
<feComposite in2="hardAlpha" operator="out"/>
<feColorMatrix type="matrix" values="0 0 0 0 0.975 0 0 0 0 0 0 0 0 0 0 0 0 0 0.1 0"/>
<feBlend mode="color-burn" in2="effect1_backgroundBlur_1388_32346" result="effect2_dropShadow_1388_32346"/>
<feBlend mode="normal" in="SourceGraphic" in2="effect2_dropShadow_1388_32346" result="shape"/>
<feColorMatrix in="SourceAlpha" type="matrix" values="0 0 0 0 0 0 0 0 0 0 0 0 0 0 0 0 0 0 127 0" result="hardAlpha"/>
<feOffset dy="-2"/>
<feGaussianBlur stdDeviation="5"/>
<feComposite in2="hardAlpha" operator="arithmetic" k2="-1" k3="1"/>
<feColorMatrix type="matrix" values="0 0 0 0 0.9875 0 0 0 0 0.0329167 0 0 0 0 0.0329167 0 0 0 0.25 0"/>
<feBlend mode="normal" in2="shape" result="effect3_innerShadow_1388_32346"/>
<feColorMatrix in="SourceAlpha" type="matrix" values="0 0 0 0 0 0 0 0 0 0 0 0 0 0 0 0 0 0 127 0" result="hardAlpha"/>
<feOffset dx="-2" dy="2"/>
<feGaussianBlur stdDeviation="5"/>
<feComposite in2="hardAlpha" operator="arithmetic" k2="-1" k3="1"/>
<feColorMatrix type="matrix" values="0 0 0 0 1 0 0 0 0 0.929167 0 0 0 0 0.929167 0 0 0 0.52 0"/>
<feBlend mode="normal" in2="effect3_innerShadow_1388_32346" result="effect4_innerShadow_1388_32346"/>
</filter>
<filter id="filter4_bdii_1388_32346" x="339.07" y="108.994" width="68.2891" height="72.3657" filterUnits="userSpaceOnUse" color-interpolation-filters="sRGB">
<feFlood flood-opacity="0" result="BackgroundImageFix"/>
<feGaussianBlur in="BackgroundImageFix" stdDeviation="7.5"/>
<feComposite in2="SourceAlpha" operator="in" result="effect1_backgroundBlur_1388_32346"/>
<feColorMatrix in="SourceAlpha" type="matrix" values="0 0 0 0 0 0 0 0 0 0 0 0 0 0 0 0 0 0 127 0" result="hardAlpha"/>
<feOffset dx="2" dy="-2"/>
<feGaussianBlur stdDeviation="6"/>
<feComposite in2="hardAlpha" operator="out"/>
<feColorMatrix type="matrix" values="0 0 0 0 0.970833 0 0 0 0 0.137535 0 0 0 0 0.137535 0 0 0 0.1 0"/>
<feBlend mode="color-burn" in2="effect1_backgroundBlur_1388_32346" result="effect2_dropShadow_1388_32346"/>
<feBlend mode="normal" in="SourceGraphic" in2="effect2_dropShadow_1388_32346" result="shape"/>
<feColorMatrix in="SourceAlpha" type="matrix" values="0 0 0 0 0 0 0 0 0 0 0 0 0 0 0 0 0 0 127 0" result="hardAlpha"/>
<feOffset dy="-2"/>
<feGaussianBlur stdDeviation="5"/>
<feComposite in2="hardAlpha" operator="arithmetic" k2="-1" k3="1"/>
<feColorMatrix type="matrix" values="0 0 0 0 1 0 0 0 0 0.370833 0 0 0 0 0.563829 0 0 0 0.15 0"/>
<feBlend mode="normal" in2="shape" result="effect3_innerShadow_1388_32346"/>
<feColorMatrix in="SourceAlpha" type="matrix" values="0 0 0 0 0 0 0 0 0 0 0 0 0 0 0 0 0 0 127 0" result="hardAlpha"/>
<feOffset dx="-2" dy="2"/>
<feGaussianBlur stdDeviation="5"/>
<feComposite in2="hardAlpha" operator="arithmetic" k2="-1" k3="1"/>
<feColorMatrix type="matrix" values="0 0 0 0 1 0 0 0 0 0.791667 0 0 0 0 0.842091 0 0 0 0.52 0"/>
<feBlend mode="normal" in2="effect3_innerShadow_1388_32346" result="effect4_innerShadow_1388_32346"/>
</filter>
<linearGradient id="paint0_linear_1388_32346" x1="70.2319" y1="32.7858" x2="52.7743" y2="85.4836" gradientUnits="userSpaceOnUse">
<stop stop-color="#FF8790" stop-opacity="0"/>
<stop offset="1" stop-color="#FF5864"/>
</linearGradient>
<linearGradient id="paint1_linear_1388_32346" x1="119.12" y1="105.124" x2="112.405" y2="138.744" gradientUnits="userSpaceOnUse">
<stop stop-color="#FFACB2" stop-opacity="0"/>
<stop offset="0.975652" stop-color="#FF5864"/>
</linearGradient>
<linearGradient id="paint2_linear_1388_32346" x1="232.567" y1="-15.5294" x2="251.733" y2="20.7863" gradientUnits="userSpaceOnUse">
<stop stop-color="#FFACB2" stop-opacity="0"/>
<stop offset="0.975652" stop-color="#FF5864"/>
</linearGradient>
<linearGradient id="paint3_linear_1388_32346" x1="307.281" y1="58.5485" x2="274.024" y2="110.76" gradientUnits="userSpaceOnUse">
<stop stop-color="#FF9299" stop-opacity="0"/>
<stop offset="1" stop-color="#FF5864"/>
</linearGradient>
<linearGradient id="paint4_linear_1388_32346" x1="163.746" y1="11.5289" x2="96.5837" y2="3.51916" gradientUnits="userSpaceOnUse">
<stop stop-color="#FF9299" stop-opacity="0"/>
<stop offset="1" stop-color="#FF5864"/>
</linearGradient>
<linearGradient id="paint5_linear_1388_32346" x1="334.49" y1="185.047" x2="286.989" y2="207.4" gradientUnits="userSpaceOnUse">
<stop stop-color="#FFB6BB" stop-opacity="0"/>
<stop offset="1" stop-color="#FF5864"/>
</linearGradient>
<linearGradient id="paint6_linear_1388_32346" x1="38.4904" y1="116.047" x2="-9.01063" y2="138.4" gradientUnits="userSpaceOnUse">
<stop stop-color="#FFB6BB" stop-opacity="0"/>
<stop offset="1" stop-color="#FF5864"/>
</linearGradient>
<clipPath id="clip0_1388_32346">
<rect width="375" height="216" fill="white"/>
</clipPath>
</defs>
</svg>
