<svg width="19" height="18" viewBox="0 0 19 18" fill="none" xmlns="http://www.w3.org/2000/svg">
<path fill-rule="evenodd" clip-rule="evenodd" d="M9.92169 4.87433C10.3692 4.87433 10.7985 4.69654 11.1149 4.38007C11.4314 4.0636 11.6092 3.63438 11.6092 3.18683C11.6092 2.73928 11.4314 2.31005 11.1149 1.99359C10.7985 1.67712 10.3692 1.49933 9.92169 1.49933C9.47414 1.49933 9.04492 1.67712 8.72845 1.99359C8.41198 2.31005 8.23419 2.73928 8.23419 3.18683C8.23419 3.63438 8.41198 4.0636 8.72845 4.38007C9.04492 4.69654 9.47414 4.87433 9.92169 4.87433ZM15.1417 5.78933C15.1974 5.98029 15.1749 6.18555 15.0793 6.35995C14.9837 6.53436 14.8227 6.66363 14.6317 6.71933C13.7407 6.97883 12.9359 7.17458 12.1717 7.3047V15.7493C12.1719 15.9425 12.0976 16.1283 11.9642 16.2681C11.8308 16.4078 11.6486 16.4907 11.4557 16.4994C11.2627 16.5082 11.0738 16.4421 10.9283 16.315C10.7828 16.1879 10.692 16.0096 10.6747 15.8172L10.2997 11.6922C10.2977 11.6696 10.2967 11.647 10.2967 11.6243H9.54669C9.54672 11.647 9.54572 11.6696 9.54369 11.6922L9.16869 15.8172C9.15143 16.0096 9.0606 16.1879 8.91511 16.315C8.76962 16.4421 8.58071 16.5082 8.38772 16.4994C8.19474 16.4907 8.01258 16.4078 7.87919 16.2681C7.7458 16.1283 7.67147 15.9425 7.67169 15.7493V7.29083C6.90932 7.15958 6.10757 6.96795 5.22107 6.72195C5.12525 6.69644 5.03544 6.65217 4.95684 6.59173C4.87824 6.53128 4.81241 6.45584 4.76315 6.36978C4.71389 6.28373 4.68219 6.18875 4.66987 6.09036C4.65755 5.99197 4.66487 5.89212 4.6914 5.79657C4.71792 5.70103 4.76313 5.6117 4.82441 5.53374C4.88568 5.45578 4.96181 5.39074 5.04838 5.3424C5.13496 5.29405 5.23026 5.26335 5.32877 5.25208C5.42729 5.2408 5.52706 5.24917 5.62232 5.2767C7.35032 5.75595 8.64857 5.9937 9.92507 5.99933C11.1986 6.00495 12.4938 5.77995 14.2117 5.27933C14.4027 5.22363 14.6079 5.24608 14.7823 5.34172C14.9567 5.43736 15.086 5.59837 15.1417 5.78933Z" fill="#121212"/>
</svg>
