<svg width="12" height="16" viewBox="0 0 12 16" fill="none" xmlns="http://www.w3.org/2000/svg">
<path fill-rule="evenodd" clip-rule="evenodd" d="M5.99982 3.87427C6.44737 3.87427 6.87659 3.69648 7.19306 3.38001C7.50953 3.06354 7.68732 2.63432 7.68732 2.18677C7.68732 1.73921 7.50953 1.30999 7.19306 0.993525C6.87659 0.677057 6.44737 0.499268 5.99982 0.499268C5.55227 0.499268 5.12304 0.677057 4.80658 0.993525C4.49011 1.30999 4.31232 1.73921 4.31232 2.18677C4.31232 2.63432 4.49011 3.06354 4.80658 3.38001C5.12304 3.69648 5.55227 3.87427 5.99982 3.87427V3.87427ZM11.2198 4.78927C11.2755 4.98022 11.2531 5.18548 11.1574 5.35989C11.0618 5.5343 10.9008 5.66357 10.7098 5.71927C9.81882 5.97877 9.01407 6.17452 8.24982 6.30464V14.7493C8.25004 14.9425 8.17572 15.1283 8.04233 15.268C7.90894 15.4077 7.72677 15.4906 7.53379 15.4994C7.34081 15.5081 7.15189 15.4421 7.0064 15.315C6.86092 15.1879 6.77008 15.0096 6.75282 14.8171L6.37782 10.6921C6.37579 10.6696 6.37479 10.6469 6.37482 10.6243H5.62482C5.62485 10.6469 5.62384 10.6696 5.62182 10.6921L5.24682 14.8171C5.22956 15.0096 5.13872 15.1879 4.99323 15.315C4.84775 15.4421 4.65883 15.5081 4.46585 15.4994C4.27287 15.4906 4.0907 15.4077 3.95731 15.268C3.82392 15.1283 3.7496 14.9425 3.74982 14.7493V6.29077C2.98744 6.15952 2.18569 5.96789 1.29919 5.72189C1.20337 5.69638 1.11357 5.65211 1.03497 5.59166C0.956365 5.53122 0.890531 5.45578 0.841273 5.36972C0.792015 5.28366 0.760311 5.18869 0.747995 5.0903C0.735679 4.99191 0.742996 4.89206 0.769522 4.79651C0.796049 4.70097 0.841257 4.61163 0.902534 4.53368C0.96381 4.45572 1.03994 4.39068 1.12651 4.34234C1.21308 4.29399 1.30838 4.26329 1.4069 4.25202C1.50541 4.24074 1.60519 4.24911 1.70044 4.27664C3.42844 4.75589 4.72669 4.99364 6.00319 4.99927C7.27669 5.00489 8.57194 4.77989 10.2898 4.27927C10.4808 4.22357 10.686 4.24602 10.8604 4.34166C11.0349 4.4373 11.1641 4.59831 11.2198 4.78927V4.78927Z" fill="#121212"/>
</svg>
