<svg width="22" height="27" viewBox="0 0 22 27" fill="none" xmlns="http://www.w3.org/2000/svg">
<path d="M19.4842 18.0226C23.1646 13.5629 22.5315 6.90662 18.0773 3.23085C13.6232 -0.444915 6.9677 0.196498 3.28733 4.65621C1.44715 6.88607 0.611378 9.6722 0.884859 12.3514L3.54706 12.0949C3.35713 10.098 3.92344 8.00954 5.32867 6.30674C8.10567 2.94169 13.0603 2.46419 16.4212 5.23772C19.782 8.01126 20.2533 12.9665 17.4763 16.3316C16.0878 18.0141 14.1545 18.8721 12.1376 19.0479L11.7542 15.0171L6.73553 21.0985L12.8094 26.1109L12.3908 21.7104C15.053 21.4538 17.6608 20.2322 19.5009 18.0024L19.4842 18.0226Z" fill="white"/>
</svg>
