<svg width="8" height="6" viewBox="0 0 8 6" fill="none" xmlns="http://www.w3.org/2000/svg">
<path d="M6.6728 0.444021C6.79958 0.330865 6.96829 0.268308 7.14334 0.269549C7.31838 0.270791 7.48606 0.335735 7.611 0.450677C7.73594 0.565618 7.80837 0.721568 7.81299 0.885618C7.81762 1.04967 7.75409 1.20899 7.6358 1.32996L4.0448 5.54028C3.98305 5.60263 3.90853 5.65266 3.82568 5.6874C3.74283 5.72213 3.65336 5.74084 3.56263 5.74242C3.47189 5.74399 3.38174 5.7284 3.29758 5.69656C3.21342 5.66473 3.13697 5.61732 3.0728 5.55715L0.6914 3.32459C0.625082 3.26665 0.57189 3.19679 0.534997 3.11916C0.498104 3.04154 0.478267 2.95774 0.476668 2.87278C0.475068 2.78781 0.491741 2.70341 0.52569 2.62461C0.559639 2.54582 0.610169 2.47424 0.674266 2.41415C0.738363 2.35406 0.814713 2.30668 0.898762 2.27486C0.982812 2.24303 1.07284 2.2274 1.16347 2.2289C1.2541 2.2304 1.34349 2.249 1.42628 2.28358C1.50908 2.31817 1.5836 2.36804 1.6454 2.43021L3.53 4.19618L6.6557 0.462584C6.66133 0.456088 6.66734 0.449891 6.6737 0.444021H6.6728Z" fill="white"/>
</svg>
