<svg width="88" height="76" viewBox="0 0 88 76" fill="none" xmlns="http://www.w3.org/2000/svg">
<path d="M42.0968 62.4499C41.6863 62.9973 41.4638 63.6627 41.4625 64.3468L41.4 73.9562C41.398 74.2871 41.3051 74.6112 41.1313 74.8928C40.9574 75.1744 40.7095 75.4028 40.4145 75.5528C40.1195 75.7029 39.7889 75.7689 39.459 75.7436C39.129 75.7183 38.8123 75.6026 38.5437 75.4093C27.7187 67.7906 5.96872 50.4374 1.04997 31.2812C-2.66253 16.8031 6.54372 -2.6063 28.7312 1.24995C34.1625 2.19682 39.3687 6.02495 41.6843 9.62495C41.9718 10.0374 42.5093 11.4937 42.5093 11.4937C42.525 11.5249 42.5343 11.5468 42.5406 11.5718L42.5718 11.6499L46.925 23.2843C47.3031 24.3281 47.1437 25.4968 46.4468 26.3499L44.4781 28.8499C44.445 28.8848 44.4137 28.9213 44.3843 28.9593C44.3531 28.9968 44.3218 29.0374 44.2906 29.0687L38.9562 34.6312C38.0031 35.6437 37.8125 37.1312 38.4781 38.3312L46.7 53.3156C46.9969 53.847 47.1314 54.4538 47.087 55.0609C47.0425 55.668 46.8211 56.2487 46.45 56.7312L42.0968 62.4499V62.4499Z" fill="#FF5864"/>
<path d="M46.9022 8.00004C49.824 4.94066 53.7397 2.13754 58.8428 1.25316C81.3459 -2.62496 90.6553 16.7344 86.9647 31.175C81.9553 50.4719 59.6147 67.9063 48.7647 75.4125C48.4918 75.6074 48.1705 75.7235 47.8361 75.7481C47.5016 75.7727 47.1669 75.7048 46.8684 75.5518C46.57 75.3989 46.3194 75.1668 46.144 74.881C45.9686 74.5952 45.8752 74.2666 45.874 73.9313L45.9365 66.3313C45.9365 65.6375 46.1647 64.975 46.5803 64.4407L52.199 57.1563C52.5752 56.6782 52.8005 56.0989 52.8462 55.4922C52.8918 54.8856 52.7557 54.279 52.4553 53.75L44.399 39.2469C44.0702 38.6628 43.9393 37.9878 44.0261 37.3231C44.1128 36.6584 44.4125 36.0396 44.8803 35.5594L47.224 33.1313C47.2553 33.1 47.2865 33.0594 47.3178 33.0188C47.348 32.9806 47.3804 32.9441 47.4147 32.9094L51.8459 27.4219C52.5209 26.5719 52.7115 25.4063 52.3272 24.3657L46.6147 9.26254C46.5499 9.1126 46.5169 8.95086 46.5178 8.78754C46.5178 8.31879 46.9022 8.00004 46.9022 8.00004V8.00004Z" fill="#FF5864"/>
</svg>
