<svg width="22" height="19" viewBox="0 0 22 19" fill="none" xmlns="http://www.w3.org/2000/svg">
<path d="M10.5432 15.3048C10.4447 15.4361 10.3913 15.5958 10.391 15.76L10.376 18.0663C10.3755 18.1457 10.3532 18.2235 10.3115 18.2911C10.2698 18.3587 10.2103 18.4135 10.1395 18.4495C10.0687 18.4855 9.98935 18.5013 9.91015 18.4953C9.83096 18.4892 9.75496 18.4614 9.69049 18.415C7.09249 16.5865 1.87249 12.4218 0.691993 7.82428C-0.199007 4.34953 2.01049 -0.308716 7.33549 0.616784C8.63899 0.844034 9.88849 1.76278 10.4442 2.62678C10.5132 2.72578 10.6422 3.07528 10.6422 3.07528C10.646 3.08278 10.6482 3.08803 10.6497 3.09403L10.6572 3.11278L11.702 5.90503C11.7927 6.15553 11.7545 6.43603 11.5872 6.64078L11.1147 7.24078C11.1068 7.24914 11.0993 7.2579 11.0922 7.26703C11.0847 7.27603 11.0772 7.28578 11.0697 7.29328L9.78949 8.62828C9.56074 8.87128 9.51499 9.22828 9.67474 9.51628L11.648 13.1125C11.7192 13.2401 11.7515 13.3857 11.7409 13.5314C11.7302 13.6771 11.6771 13.8165 11.588 13.9323L10.5432 15.3048V15.3048Z" fill="#FF5864"/>
<path d="M11.6965 2.23683C12.3978 1.50258 13.3375 0.829835 14.5623 0.617585C19.963 -0.313165 22.1973 4.33308 21.3115 7.79883C20.1093 12.4301 14.7475 16.6143 12.1435 18.4158C12.078 18.4626 12.0009 18.4905 11.9207 18.4964C11.8404 18.5023 11.7601 18.486 11.6884 18.4493C11.6168 18.4126 11.5566 18.3569 11.5146 18.2883C11.4725 18.2197 11.45 18.1408 11.4498 18.0603L11.4648 16.2363C11.4648 16.0698 11.5195 15.9108 11.6193 15.7826L12.9678 14.0343C13.0581 13.9196 13.1121 13.7806 13.1231 13.635C13.134 13.4894 13.1014 13.3438 13.0293 13.2168L11.0958 9.73608C11.0168 9.59589 10.9854 9.4339 11.0063 9.27437C11.0271 9.11483 11.099 8.96633 11.2113 8.85108L11.7738 8.26833C11.7813 8.26083 11.7888 8.25108 11.7963 8.24133C11.8035 8.23217 11.8113 8.2234 11.8195 8.21508L12.883 6.89808C13.045 6.69408 13.0908 6.41433 12.9985 6.16458L11.6275 2.53983C11.612 2.50385 11.6041 2.46503 11.6043 2.42583C11.6043 2.31333 11.6965 2.23683 11.6965 2.23683V2.23683Z" fill="#FF5864"/>
</svg>
